# xmcd
# 
# Track frame offsets:
#     150
#     29387
#     58515
#     67030
#     94207
#     105512
#     117122
#     148870
# 
# Disc length: 2593
# 
# Revision: 3
# Processed by: cddbd v1.5.2PL0 Copyright (c) Steve Scherf et al.
# Submitted via: BonkEnc v1.0.6
# 
DISCID=6e0a1f08
DTITLE=Luis Cobos - Mexicano
DYEAR=0
DGENRE=
TTITLE0=Mexicano Obertura
TTITLE1=Mexico Lindo y Querido
TTITLE2=Serenata Mexicana
TTITLE3=Huapango
TTITLE4=Guadalajara
TTITLE5=Intermezzo
TTITLE6=La Bamba
TTITLE7=Las Ma anitas
EXTD=
EXTT0=
EXTT1=
EXTT2=
EXTT3=
EXTT4=
EXTT5=
EXTT6=
EXTT7=
PLAYORDER=
